<?xml version="1.0" encoding="UTF-8"?>
<svg id="Layer_1" data-name="Layer 1" xmlns="http://www.w3.org/2000/svg" xmlns:xlink="http://www.w3.org/1999/xlink" viewBox="0 0 830 291">
  <defs>
    <style>
      .cls-1 {
        fill: none;
      }

      .cls-2 {
        fill: url(#linear-gradient);
      }

      .cls-3 {
        fill: #fff;
      }

      .cls-4 {
        fill: #00a783;
      }

      .cls-5 {
        fill: url(#linear-gradient-3);
      }

      .cls-6 {
        fill: url(#linear-gradient-2);
      }
    </style>
    <linearGradient id="linear-gradient" x1="113.25" y1="174.72" x2="175.97" y2="174.72" gradientTransform="matrix(1, 0, 0, 1, 0, 0)" gradientUnits="userSpaceOnUse">
      <stop offset="0" stop-color="#00a783"/>
      <stop offset=".03" stop-color="#00a783" stop-opacity=".92"/>
      <stop offset=".07" stop-color="#00a783" stop-opacity=".85"/>
      <stop offset=".14" stop-color="#00a783" stop-opacity=".81"/>
      <stop offset=".31" stop-color="#00a783" stop-opacity=".8"/>
      <stop offset="1" stop-color="#fff"/>
    </linearGradient>
    <linearGradient id="linear-gradient-2" x1="57.67" y1="143.02" x2="184.8" y2="143.02" xlink:href="#linear-gradient"/>
    <linearGradient id="linear-gradient-3" x1="58.99" y1="123.54" x2="125.13" y2="123.54" gradientTransform="matrix(1, 0, 0, 1, 0, 0)" gradientUnits="userSpaceOnUse">
      <stop offset="0" stop-color="#00a783"/>
      <stop offset=".3" stop-color="#00a580"/>
      <stop offset=".47" stop-color="#009e78"/>
      <stop offset=".61" stop-color="#00946a"/>
      <stop offset=".73" stop-color="#008556"/>
      <stop offset=".84" stop-color="#00723c"/>
      <stop offset=".94" stop-color="#005a1d"/>
      <stop offset="1" stop-color="#004a07"/>
    </linearGradient>
  </defs>
  <g>
    <rect class="cls-1" x="181.34" y="31.56" width="662.66" height="224.72"/>
    <g>
      <polyline points="398.82 136.29 398.82 196.88 482.68 196.88 482.68 185.1 413.25 185.1 413.25 148 475.05 148 475.05 136.37 413.25 136.37"/>
      <path d="M335.95,197.18h-84.77v-10.8l64.82-83.86h-59.31v-11.79h75.7v10.5l-64.82,84.16h68.37v11.79Z"/>
      <path class="cls-4" d="M398.82,102.58v-11.85h80.76v11.79h-66.33"/>
      <path d="M630.76,167.79c0,9.82-3.84,17.43-11.52,22.82-7.68,5.39-18.5,8.08-32.45,8.08-25.94,0-40.97-9.02-45.1-27.05l13.98-2.8c1.61,6.4,5.04,11.09,10.28,14.09,5.24,3,12.36,4.49,21.38,4.49s16.51-1.6,21.57-4.8c5.06-3.2,7.59-7.89,7.59-14.09,0-3.48-.79-6.3-2.38-8.46-1.59-2.16-3.81-3.95-6.69-5.36-2.87-1.41-6.3-2.59-10.27-3.55-3.98-.96-8.39-1.99-13.22-3.1-8.41-1.86-14.8-3.73-19.15-5.59-4.36-1.86-7.8-3.94-10.31-6.23s-4.45-4.97-5.78-8.05c-1.34-3.07-2-6.6-2-10.58,0-9.12,3.49-16.14,10.46-21.08,6.97-4.94,16.96-7.4,29.96-7.4,12.09,0,21.33,1.85,27.73,5.55,6.4,3.7,10.88,10.01,13.45,18.92l-14.2,2.49c-1.56-5.64-4.53-9.73-8.91-12.28-4.38-2.54-10.45-3.81-18.21-3.81-8.51,0-15.01,1.41-19.49,4.23-4.48,2.82-6.72,7.03-6.72,12.62,0,3.27,.87,5.98,2.61,8.12,1.74,2.14,4.24,3.95,7.52,5.44,3.27,1.49,9.8,3.31,19.57,5.48,3.27,.76,6.53,1.52,9.78,2.3,3.25,.78,6.36,1.71,9.33,2.8,2.97,1.08,5.75,2.35,8.35,3.82,2.59,1.46,4.85,3.25,6.76,5.36,1.91,2.12,3.41,4.61,4.5,7.48,1.08,2.87,1.62,6.25,1.62,10.12Z"/>
      <path d="M737.59,102.52v94.66h-14.35V102.52h-36.57v-11.79h87.49v11.79h-36.57Z"/>
    </g>
  </g>
  <g>
    <g>
      <polygon class="cls-3" points="175.97 180.93 113.25 176.63 148.72 168.51 175.97 180.93"/>
      <path class="cls-3" d="M184.8,143.54c0-35.68-21.95-65.41-51.08-72.13,0-.05,0-.1,0-.15,0-7.88-5.6-14.26-12.5-14.26s-12.5,6.38-12.5,14.26c0,.05,0,.1,0,.15-19.48,4.49-35.75,19.3-44.38,39.28l60.77,12.64-66.24,5.86c-.79,4.64-1.22,9.43-1.22,14.34,0,35.69,21.97,65.43,51.11,72.13,.41,7.46,5.82,13.37,12.46,13.37s12.05-5.91,12.46-13.37c17.99-4.14,33.24-17.06,42.28-34.74l-62.72-4.3,69.81-15.98c1.13-5.49,1.74-11.22,1.74-17.11Z"/>
      <polygon class="cls-3" points="58.99 129.19 125.13 123.33 98.9 117.89 58.99 129.19"/>
    </g>
    <g>
      <polygon class="cls-2" points="175.97 180.93 113.25 176.63 148.72 168.51 175.97 180.93"/>
      <path class="cls-6" d="M184.8,143.54c0-35.68-21.95-65.41-51.08-72.13,0-.05,0-.1,0-.15,0-7.88-5.6-14.26-12.5-14.26s-12.5,6.38-12.5,14.26c0,.05,0,.1,0,.15-19.48,4.49-35.75,19.3-44.38,39.28l60.77,12.64-66.24,5.86c-.79,4.64-1.22,9.43-1.22,14.34,0,35.69,21.97,65.43,51.11,72.13,.41,7.46,5.82,13.37,12.46,13.37s12.05-5.91,12.46-13.37c17.99-4.14,33.24-17.06,42.28-34.74l-62.72-4.3,69.81-15.98c1.13-5.49,1.74-11.22,1.74-17.11Z"/>
      <polygon class="cls-5" points="58.99 129.19 125.13 123.33 98.9 117.89 58.99 129.19"/>
    </g>
  </g>
</svg>