<svg id="a35b3f08-de61-4036-9fbf-384a0cb5e578" data-name="Layer 2" xmlns="http://www.w3.org/2000/svg" xmlns:xlink="http://www.w3.org/1999/xlink" viewBox="0 0 165.5 165.5">
  <defs>
    <style>
      .f2866d72-0baf-46b5-aaa3-ca57b3b0b243 {
        fill: url(#ff815f73-b131-4159-971b-766c7dcbf893);
      }

      .a31d8b84-d4a0-46a9-88e9-f610577ef295, .a6d88a16-1c4f-455a-81de-6b8f06dc9bde, .b8944145-93ef-4013-b0b4-3df1961d7555 {
        fill: none;
        stroke-miterlimit: 10;
      }

      .a6d88a16-1c4f-455a-81de-6b8f06dc9bde, .b8944145-93ef-4013-b0b4-3df1961d7555 {
        stroke: #f1ffb4;
      }

      .a6d88a16-1c4f-455a-81de-6b8f06dc9bde {
        stroke-width: 5px;
      }

      .a50b5b65-b144-4cfd-96ce-8a43a7fd3470, .a5a92b2f-d911-4bd8-8829-5ac3a79fae28 {
        fill-rule: evenodd;
      }

      .a50b5b65-b144-4cfd-96ce-8a43a7fd3470 {
        fill: url(#bdcbd103-edd4-4d8b-a5e1-a125ef6ffe6e);
      }

      .a5a92b2f-d911-4bd8-8829-5ac3a79fae28 {
        fill: #f1ffb4;
      }

      .b8944145-93ef-4013-b0b4-3df1961d7555 {
        stroke-width: 11px;
      }

      .a31d8b84-d4a0-46a9-88e9-f610577ef295 {
        stroke-width: 5.5px;
        stroke: url(#b11a5e04-0fda-4e6f-9322-b029685ac4f5);
      }
    </style>
    <linearGradient id="ff815f73-b131-4159-971b-766c7dcbf893" x1="16.24" y1="85.16" x2="150.2" y2="85.16" gradientTransform="matrix(1, 0, 0, -1, 0, 168)" gradientUnits="userSpaceOnUse">
      <stop offset="0" stop-color="#68c5d9"/>
      <stop offset="1" stop-color="#0473b9"/>
    </linearGradient>
    <linearGradient id="bdcbd103-edd4-4d8b-a5e1-a125ef6ffe6e" x1="52.91" y1="82.85" x2="110.35" y2="82.85" xlink:href="#ff815f73-b131-4159-971b-766c7dcbf893"/>
    <linearGradient id="b11a5e04-0fda-4e6f-9322-b029685ac4f5" y1="85.25" x2="165.5" y2="85.25" gradientTransform="matrix(1, 0, 0, -1, 0, 168)" gradientUnits="userSpaceOnUse">
      <stop offset="0" stop-color="#63c2d8"/>
      <stop offset="1" stop-color="#0977ba"/>
    </linearGradient>
  </defs>
  <g id="eb2c7add-0154-48cf-b001-700c577498ae" data-name="Layer 1-2">
    <g>
      <path d="M45.5,18.9c2.1,0,4.1-3.5,6.1-3.5-2.1,0-4.1,3.5-6.1,3.5Z"/>
      <path d="M75,139.2c2.1,0,4.1-3.5,6.1-3.5-2.1,0-4.1,3.5-6.1,3.5Z"/>
      <circle class="f2866d72-0baf-46b5-aaa3-ca57b3b0b243" cx="83.2" cy="82.8" r="67"/>
      <g id="bc46236d-4c76-47bb-acc0-c9e187b0fd6b" data-name="lines">
        <line class="a6d88a16-1c4f-455a-81de-6b8f06dc9bde" x1="30.7" y1="146" x2="134.8" y2="22.8"/>
        <line class="a6d88a16-1c4f-455a-81de-6b8f06dc9bde" x1="28.3" y1="23.4" x2="133.4" y2="146"/>
        <line class="a6d88a16-1c4f-455a-81de-6b8f06dc9bde" x1="81.8" y1="162.8" x2="81.8" y2="2.8"/>
        <line class="a6d88a16-1c4f-455a-81de-6b8f06dc9bde" x1="155.3" y1="83.3" x2="11.1" y2="83.3"/>
      </g>
      <g>
        <g id="a6ef6b43-aedc-4993-a1c4-e3128290565e" data-name="Layer 1-2">
          <path class="a50b5b65-b144-4cfd-96ce-8a43a7fd3470" d="M52.9,53.8v62.7l28.7,16.3,28.7-16.3V53.8L81.6,37.5Z"/>
        </g>
        <g id="bf18e472-3c1b-4c92-ae21-e9a6dd262f73" data-name="Layer 1-2-2">
          <path class="a5a92b2f-d911-4bd8-8829-5ac3a79fae28" d="M87.4,70.6l17.2-10.1V80.6Zm17.2,43L81.6,127,58.7,113.6V90.2l22.9,13.4,23-13.4ZM58.7,60.5,75.9,70.6l-17.2,10ZM84.5,75.3l17.2,10.1-17.2,10ZM78.8,95.4l-17.3-10L78.8,75.3Zm22.9-39.7L81.6,67.2,61.5,55.7l20.1-12ZM52.9,53.8v62.7l28.7,16.3,28.7-16.3V53.8L81.6,37.5,52.9,53.8Z"/>
        </g>
      </g>
      <circle id="b0889365-c366-43c2-a69b-877210ea4700" data-name="border" class="b8944145-93ef-4013-b0b4-3df1961d7555" cx="83.2" cy="82.8" r="72.1"/>
      <circle id="eaca40c2-6990-4015-9c8e-1ff1cc296348" data-name="border-2" class="a31d8b84-d4a0-46a9-88e9-f610577ef295" cx="82.8" cy="82.8" r="80"/>
    </g>
  </g>
</svg>
