<?xml version="1.0" encoding="UTF-8"?>
<svg id="Layer_1" data-name="Layer 1" xmlns="http://www.w3.org/2000/svg" xmlns:xlink="http://www.w3.org/1999/xlink" viewBox="0 0 500 463.5">
  <defs>
    <style>
      .cls-1 {
        fill: none;
      }

      .cls-2 {
        fill: url(#linear-gradient);
      }

      .cls-3 {
        fill: #fff;
      }

      .cls-4 {
        fill: #00a783;
      }

      .cls-5 {
        fill: url(#linear-gradient-3);
      }

      .cls-6 {
        fill: url(#linear-gradient-2);
      }
    </style>
    <linearGradient id="linear-gradient" x1="240.35" y1="200.8" x2="318.45" y2="200.8" gradientTransform="matrix(1, 0, 0, 1, 0, 0)" gradientUnits="userSpaceOnUse">
      <stop offset="0" stop-color="#00a783"/>
      <stop offset=".03" stop-color="#00a783" stop-opacity=".92"/>
      <stop offset=".07" stop-color="#00a783" stop-opacity=".85"/>
      <stop offset=".14" stop-color="#00a783" stop-opacity=".81"/>
      <stop offset=".31" stop-color="#00a783" stop-opacity=".8"/>
      <stop offset="1" stop-color="#fff"/>
    </linearGradient>
    <linearGradient id="linear-gradient-2" x1="171.14" y1="161.33" x2="329.45" y2="161.33" xlink:href="#linear-gradient"/>
    <linearGradient id="linear-gradient-3" x1="172.79" y1="137.07" x2="255.14" y2="137.07" gradientTransform="matrix(1, 0, 0, 1, 0, 0)" gradientUnits="userSpaceOnUse">
      <stop offset="0" stop-color="#00a783"/>
      <stop offset=".3" stop-color="#00a580"/>
      <stop offset=".47" stop-color="#009e78"/>
      <stop offset=".61" stop-color="#00946a"/>
      <stop offset=".73" stop-color="#008556"/>
      <stop offset=".84" stop-color="#00723c"/>
      <stop offset=".94" stop-color="#005a1d"/>
      <stop offset="1" stop-color="#004a07"/>
    </linearGradient>
  </defs>
  <g>
    <rect class="cls-1" x=".29" y="283.23" width="500" height="169.56"/>
    <g>
      <polyline class="cls-3" points="164.38 362.25 164.38 407.97 227.66 407.97 227.66 399.08 175.27 399.08 175.27 371.09 221.9 371.09 221.9 362.31 175.27 362.31"/>
      <path class="cls-3" d="M116.95,408.19H52.99v-8.15l48.91-63.28H57.15v-8.89h57.12v7.92l-48.91,63.5h51.59v8.89Z"/>
      <path class="cls-4" d="M164.38,336.82v-8.94h60.94v8.89h-50.05"/>
      <path class="cls-3" d="M339.39,386.02c0,7.41-2.9,13.15-8.69,17.22-5.8,4.07-13.96,6.1-24.48,6.1-19.57,0-30.92-6.8-34.03-20.41l10.55-2.11c1.22,4.83,3.8,8.37,7.75,10.63,3.95,2.26,9.33,3.39,16.13,3.39s12.46-1.21,16.27-3.62c3.82-2.41,5.73-5.96,5.73-10.63,0-2.62-.6-4.75-1.8-6.39-1.2-1.63-2.88-2.98-5.04-4.05-2.17-1.06-4.75-1.96-7.75-2.68-3-.72-6.33-1.5-9.98-2.34-6.35-1.41-11.16-2.81-14.45-4.22-3.29-1.4-5.88-2.97-7.78-4.7-1.9-1.73-3.35-3.75-4.36-6.07-1.01-2.32-1.51-4.98-1.51-7.98,0-6.88,2.63-12.18,7.9-15.9,5.26-3.72,12.8-5.59,22.6-5.59,9.12,0,16.09,1.4,20.92,4.19,4.83,2.79,8.21,7.55,10.15,14.28l-10.72,1.88c-1.18-4.26-3.42-7.34-6.73-9.26-3.31-1.92-7.89-2.88-13.74-2.88-6.42,0-11.33,1.06-14.71,3.19-3.38,2.13-5.07,5.3-5.07,9.52,0,2.47,.66,4.51,1.97,6.13,1.31,1.62,3.2,2.98,5.67,4.1,2.47,1.12,7.39,2.5,14.76,4.13,2.47,.57,4.93,1.15,7.38,1.74,2.45,.59,4.8,1.29,7.04,2.11,2.24,.82,4.34,1.78,6.3,2.88s3.66,2.45,5.1,4.05c1.44,1.6,2.57,3.48,3.39,5.64,.82,2.17,1.23,4.71,1.23,7.64Z"/>
      <path class="cls-3" d="M420,336.77v71.43h-10.83v-71.43h-27.59v-8.89h66.01v8.89h-27.59Z"/>
    </g>
  </g>
  <g>
    <g>
      <polygon class="cls-3" points="318.45 208.54 240.35 203.18 284.51 193.07 318.45 208.54"/>
      <path class="cls-3" d="M329.45,161.97c0-44.42-27.33-81.45-63.6-89.81,0-.06,0-.12,0-.19,0-9.81-6.97-17.76-15.56-17.76s-15.56,7.95-15.56,17.76c0,.06,0,.13,0,.19-24.26,5.6-44.51,24.03-55.27,48.91l75.67,15.74-82.48,7.3c-.99,5.78-1.52,11.75-1.52,17.86,0,44.44,27.35,81.48,63.64,89.82,.5,9.29,7.25,16.65,15.51,16.65s15.01-7.36,15.51-16.65c22.4-5.15,41.39-21.25,52.64-43.26l-78.1-5.36,86.93-19.9c1.41-6.84,2.17-13.97,2.17-21.31Z"/>
      <polygon class="cls-3" points="172.79 144.11 255.14 136.81 222.48 130.04 172.79 144.11"/>
    </g>
    <g>
      <polygon class="cls-2" points="318.45 208.54 240.35 203.18 284.51 193.07 318.45 208.54"/>
      <path class="cls-6" d="M329.45,161.97c0-44.42-27.33-81.45-63.6-89.81,0-.06,0-.12,0-.19,0-9.81-6.97-17.76-15.56-17.76s-15.56,7.95-15.56,17.76c0,.06,0,.13,0,.19-24.26,5.6-44.51,24.03-55.27,48.91l75.67,15.74-82.48,7.3c-.99,5.78-1.52,11.75-1.52,17.86,0,44.44,27.35,81.48,63.64,89.82,.5,9.29,7.25,16.65,15.51,16.65s15.01-7.36,15.51-16.65c22.4-5.15,41.39-21.25,52.64-43.26l-78.1-5.36,86.93-19.9c1.41-6.84,2.17-13.97,2.17-21.31Z"/>
      <polygon class="cls-5" points="172.79 144.11 255.14 136.81 222.48 130.04 172.79 144.11"/>
    </g>
  </g>
</svg>